<svg version="1.2" xmlns="http://www.w3.org/2000/svg" viewBox="0 0 24 24" width="24" height="24">
	<title>Camera-svg</title>
	<style>
		.s0 { fill: #red } 
	</style>
	<g id="Iconly/Light-Outline/Camera">
		<g id="Camera">
			<path id="Stroke 1" fill-rule="evenodd" class="s0" d="m7.2 4.8c0.4-0.7 0.8-1.2 1.5-1.4 1.2-0.5 5.4-0.5 6.6 0 0.7 0.2 1.1 0.7 1.5 1.4l0.5 0.9q0 0 0 0v0.1c0.2 0.2 0.6 0.4 0.8 0.4 2.2 0 3.9 1.7 3.9 3.9v5.7c0 2.8-2.2 5-5 5h-10c-2.8 0-5-2.2-5-5v-5.7c0-2.2 1.7-3.9 3.9-3.9 0.2 0 0.6-0.2 0.8-0.4q0 0 0 0v-0.1zm8.3 0.7c-0.2-0.4-0.4-0.7-0.7-0.8h-0.1c-1-0.3-4.6-0.3-5.4 0-0.3 0.1-0.5 0.4-0.7 0.8l-0.4 0.8-0.1 0.1q-0.1 0.2-0.3 0.4c-0.5 0.5-1.2 0.8-1.9 0.8h-0.1c-1.3 0.1-2.3 1.2-2.3 2.4v5.8c0 1.9 1.6 3.5 3.5 3.5h10.1c1.9 0 3.4-1.6 3.4-3.5v-5.8c0-1.3-1-2.4-2.3-2.4h-0.2c-0.6 0-1.3-0.3-1.7-0.8q-0.2-0.2-0.3-0.4 0 0 0 0l-0.1-0.3z"/>
			<path id="Stroke 13" class="s0" d="m17.5 8.5c0.6 0 1 0.4 1 1 0 0.5-0.4 0.9-0.9 1h-0.1c-0.6 0-1-0.4-1-1 0-0.5 0.4-0.9 0.9-1z"/>
			<path id="Stroke 5" fill-rule="evenodd" class="s0" d="m8.1 13.1c0-2.1 1.7-3.9 3.9-3.9 2.2 0 3.9 1.8 3.9 3.9 0 2.2-1.7 4-3.9 4-2.2 0-3.9-1.8-3.9-4zm6.3 0c0-1.3-1.1-2.4-2.4-2.4-1.3 0-2.4 1.1-2.4 2.4 0 1.4 1.1 2.5 2.4 2.5 1.3 0 2.4-1.1 2.4-2.5z"/>
			<path id="Shape 1" class="s0" d="m2.3 22.9l-1-0.8 19.6-20 1.6 0.2z"/>
		</g>
	</g>
</svg>